<svg width="50" height="50" viewBox="0 0 50 50" fill="none" xmlns="http://www.w3.org/2000/svg">
<path d="M44.8916 20.441C44.515 22.1778 43.0799 23.4589 41.3537 23.5996L17.2259 26.1621L11.8319 9.35645L47.3855 9.8928L44.8916 20.441Z" fill="black"/>
<path fill-rule="evenodd" clip-rule="evenodd" d="M32.7697 44.6365C32.7697 41.6744 35.1067 39.273 37.9896 39.273C40.8725 39.273 43.2095 41.6744 43.2095 44.6365C43.2095 47.5986 40.8724 50 37.9896 50C35.1068 50 32.7697 47.5988 32.7697 44.6365ZM35.0897 44.6366C35.0897 46.2823 36.388 47.6163 37.9896 47.6163C39.5912 47.6163 40.8896 46.2823 40.8895 44.6366C40.8895 42.991 39.5912 41.6569 37.9896 41.6569C36.388 41.6569 35.0897 42.991 35.0897 44.6366ZM48.8355 7.509C49.1915 7.54492 49.5219 7.71473 49.7635 7.98581C49.8778 8.1233 49.9543 8.28974 49.985 8.46787C50.0156 8.64599 49.9993 8.82929 49.9376 8.99873L47.1536 20.9773C46.5321 23.6753 44.3257 25.6797 41.6436 25.9833L17.2259 28.6055L16.7619 29.6782C16.5953 30.1463 16.5349 30.6472 16.5852 31.1429C16.6354 31.6386 16.795 32.116 17.0518 32.5388C17.3109 32.9657 17.6691 33.3199 18.0943 33.5696C18.5195 33.8192 18.9983 33.9565 19.4878 33.9691H42.0497C42.6904 33.9691 43.2097 34.5027 43.2097 35.161C43.2097 35.8193 42.6904 36.3529 42.0497 36.3529H19.4879C18.6204 36.3261 17.7719 36.0845 17.0146 35.6488C16.2573 35.213 15.6135 34.5959 15.1379 33.8499C14.6575 33.0899 14.3596 32.2235 14.2689 31.3221C14.1781 30.4207 14.2971 29.5101 14.6159 28.6651L15.1959 27.2945L7.82996 4.46965C7.62871 3.87148 7.25404 3.35096 6.75634 2.97807C6.25863 2.60518 5.66175 2.39779 5.04594 2.3838H1.15999C0.519326 2.3838 0 1.85019 0 1.1919C0 0.533611 0.519326 0 1.15999 0H5.04594C7.30153 0.0245247 9.29846 1.50376 10.0339 3.6949L11.0779 6.97265L48.8355 7.509ZM41.3537 23.5996C43.0799 23.4589 44.515 22.1778 44.8916 20.441L47.3855 9.8928L11.8319 9.35645L17.2259 26.1621L41.3537 23.5996Z" fill="black"/>
<path fill-rule="evenodd" clip-rule="evenodd" d="M22.9498 39.273C20.0668 39.273 17.7299 41.6744 17.7299 44.6365C17.7299 47.5988 20.067 50 22.9498 50C25.8327 50 28.1697 47.5986 28.1697 44.6365C28.1698 41.6744 25.8327 39.273 22.9498 39.273ZM20.0499 44.6366C20.0499 46.2823 21.3482 47.6163 22.9498 47.6163C24.5514 47.6163 25.8498 46.2823 25.8497 44.6366C25.8497 42.991 24.5514 41.6569 22.9498 41.6569C21.3482 41.6569 20.0499 42.991 20.0499 44.6366Z" fill="black"/>
</svg>
