<svg width="20" height="20" viewBox="0 0 20 20" fill="none" xmlns="http://www.w3.org/2000/svg">
<g clip-path="url(#clip0_1_6)">
<path d="M0.97647 19.9999C0.783298 20 0.594454 19.9427 0.433826 19.8354C0.273198 19.7281 0.148001 19.5756 0.0740724 19.3971C0.000143669 19.2187 -0.0191958 19.0223 0.0185001 18.8328C0.0561961 18.6434 0.149234 18.4693 0.285845 18.3328L18.3327 0.285883C18.5159 0.102718 18.7643 -0.000183105 19.0233 -0.000183105C19.2824 -0.000183105 19.5308 0.102718 19.714 0.285883C19.8971 0.469048 20 0.717474 20 0.976508C20 1.23554 19.8971 1.48397 19.714 1.66713L1.6671 19.714C1.57648 19.8048 1.46883 19.8768 1.35031 19.9259C1.23179 19.9749 1.10475 20.0001 0.97647 19.9999Z" fill="black"/>
<path d="M19.0234 19.9999C18.8951 20.0001 18.768 19.9749 18.6495 19.9259C18.531 19.8768 18.4234 19.8048 18.3327 19.714L0.285868 1.66713C0.102703 1.48397 -0.000198364 1.23554 -0.000198364 0.976508C-0.000198364 0.717474 0.102703 0.469048 0.285868 0.285883C0.469033 0.102718 0.717458 -0.000183105 0.976493 -0.000183105C1.23553 -0.000183105 1.48395 0.102718 1.66712 0.285883L19.714 18.3328C19.8506 18.4693 19.9436 18.6434 19.9813 18.8328C20.019 19.0223 19.9997 19.2187 19.9258 19.3971C19.8518 19.5756 19.7266 19.7281 19.566 19.8354C19.4054 19.9427 19.2165 20 19.0234 19.9999Z" fill="black"/>
</g>
<defs>
<clipPath id="clip0_1_6">
<rect width="20" height="20" fill="white"/>
</clipPath>
</defs>
</svg>
