<svg xmlns="http://www.w3.org/2000/svg" width="36" height="36" viewBox="0 0 36 36" fill="none">
    <path
        d="M29.9729 13.3624L20.9167 4.55408C20.1495 3.8247 19.1315 3.41797 18.0729 3.41797C17.0144 3.41797 15.9963 3.8247 15.2292 4.55408L6.17292 13.3041C5.77054 13.6553 5.44691 14.0877 5.22323 14.5727C4.99956 15.0577 4.88089 15.5846 4.875 16.1187V28.6312C4.89037 29.6923 5.32569 30.704 6.08559 31.4448C6.84549 32.1856 7.86801 32.5949 8.92917 32.5833H27.0708C28.132 32.5949 29.1545 32.1856 29.9144 31.4448C30.6743 30.704 31.1096 29.6923 31.125 28.6312V16.1187C31.1239 15.606 31.0215 15.0986 30.8238 14.6257C30.6261 14.1527 30.3369 13.7234 29.9729 13.3624ZM17.1833 6.65408C17.4064 6.45015 17.6977 6.33707 18 6.33707C18.3023 6.33707 18.5936 6.45015 18.8167 6.65408L26.75 14.3541L18.7729 22.0541C18.5498 22.258 18.2585 22.3711 17.9563 22.3711C17.654 22.3711 17.3627 22.258 17.1396 22.0541L9.25 14.3541L17.1833 6.65408ZM28.2083 28.6312C28.1896 28.9174 28.0606 29.1852 27.8484 29.3783C27.6363 29.5714 27.3576 29.6747 27.0708 29.6666H8.92917C8.64243 29.6747 8.36369 29.5714 8.15156 29.3783C7.93943 29.1852 7.81042 28.9174 7.79167 28.6312V17.052L13.6979 22.7395L11.2771 25.0728C11.0055 25.3461 10.853 25.7157 10.853 26.101C10.853 26.4862 11.0055 26.8558 11.2771 27.1291C11.4126 27.2713 11.5755 27.3846 11.7559 27.4623C11.9364 27.54 12.1306 27.5804 12.3271 27.5812C12.7026 27.5797 13.063 27.4334 13.3333 27.1728L15.9146 24.6937C16.5557 25.0854 17.2924 25.2927 18.0438 25.2927C18.7951 25.2927 19.5318 25.0854 20.1729 24.6937L22.7542 27.1728C23.0245 27.4334 23.3849 27.5797 23.7604 27.5812C23.9569 27.5804 24.1511 27.54 24.3316 27.4623C24.512 27.3846 24.6749 27.2713 24.8104 27.1291C25.082 26.8558 25.2345 26.4862 25.2345 26.101C25.2345 25.7157 25.082 25.3461 24.8104 25.0728L22.375 22.7395L28.2083 17.052V28.6312Z"
        fill="#F0FDF4" />
</svg>