<svg xmlns="http://www.w3.org/2000/svg" width="36" height="36" viewBox="0 0 36 36" fill="none">
    <path
        d="M26.7494 7.03355C24.4287 4.7129 21.2813 3.40918 17.9994 3.40918C14.7175 3.40918 11.57 4.7129 9.24937 7.03355C6.92872 9.35419 5.625 12.5017 5.625 15.7835C5.625 19.0654 6.92872 22.2129 9.24937 24.5335L16.9348 32.2335C17.0704 32.3702 17.2317 32.4787 17.4094 32.5528C17.5871 32.6268 17.7777 32.6649 17.9702 32.6649C18.1627 32.6649 18.3533 32.6268 18.531 32.5528C18.7088 32.4787 18.87 32.3702 19.0056 32.2335L26.7494 24.4606C29.0603 22.1496 30.3586 19.0153 30.3586 15.7471C30.3586 12.4789 29.0603 9.34454 26.7494 7.03355ZM24.664 22.3752L17.9994 29.069L11.3348 22.3752C10.0181 21.0573 9.12173 19.3787 8.75892 17.5515C8.39612 15.7242 8.58318 13.8305 9.29648 12.1095C10.0098 10.3886 11.2173 8.91779 12.7663 7.88299C14.3154 6.8482 16.1365 6.2959 17.9994 6.2959C19.8623 6.2959 21.6833 6.8482 23.2324 7.88299C24.7815 8.91779 25.989 10.3886 26.7023 12.1095C27.4156 13.8305 27.6026 15.7242 27.2398 17.5515C26.877 19.3787 25.9806 21.0573 24.664 22.3752ZM13.6244 11.3065C12.4471 12.4874 11.786 14.0869 11.786 15.7544C11.786 17.4219 12.4471 19.0214 13.6244 20.2023C14.499 21.0784 15.6129 21.6768 16.8264 21.9223C18.0398 22.1677 19.2987 22.0494 20.4451 21.5821C21.5915 21.1148 22.5744 20.3194 23.2705 19.2956C23.9665 18.2718 24.3448 17.0652 24.3577 15.8273C24.3643 15.0007 24.205 14.1812 23.8894 13.4172C23.5738 12.6533 23.1082 11.9603 22.5202 11.3794C21.9422 10.7881 21.253 10.317 20.4923 9.99319C19.7315 9.66933 18.9142 9.49912 18.0875 9.49234C17.2607 9.48556 16.4407 9.64236 15.6747 9.9537C14.9088 10.265 14.212 10.7248 13.6244 11.3065ZM20.464 18.1315C19.9113 18.6925 19.1809 19.0442 18.3977 19.1264C17.6144 19.2086 16.827 19.0161 16.1699 18.582C15.5128 18.1478 15.027 17.4989 14.7954 16.7462C14.5639 15.9934 14.6009 15.1836 14.9003 14.4552C15.1998 13.7268 15.7429 13.125 16.4369 12.7527C17.1309 12.3805 17.9327 12.2608 18.7051 12.4142C19.4776 12.5677 20.1727 12.9847 20.6718 13.5939C21.1708 14.2032 21.4427 14.9668 21.441 15.7544C21.4198 16.6546 21.0422 17.5095 20.391 18.1315H20.464Z"
        fill="#F0FDF4" />
</svg>