<svg width="24" height="24" viewBox="0 0 24 24" fill="none" xmlns="http://www.w3.org/2000/svg">
<g clip-path="url(#clip0_1_2)">
<path d="M12.0117 0.346167C12.9191 0.346222 13.7954 0.676766 14.4768 1.276L14.6565 1.44517L15.4708 2.2595C15.6943 2.48153 15.9862 2.6217 16.2992 2.65733L16.4567 2.66667H17.6233C18.5768 2.66661 19.4941 3.03133 20.1872 3.68603C20.8803 4.34073 21.2966 5.23579 21.3508 6.18767L21.3567 6.4V7.56667C21.3567 7.88167 21.464 8.1885 21.6577 8.4335L21.7627 8.55017L22.5758 9.3645C23.2498 10.0347 23.6428 10.9367 23.6747 11.8867C23.7066 12.8366 23.3749 13.763 22.7473 14.4768L22.5782 14.6565L21.7638 15.4708C21.5418 15.6943 21.4016 15.9862 21.366 16.2992L21.3567 16.4567V17.6233C21.3567 18.5768 20.992 19.4941 20.3373 20.1872C19.6826 20.8803 18.7875 21.2966 17.8357 21.3508L17.6233 21.3567H16.4567C16.1421 21.3568 15.8368 21.4628 15.5898 21.6577L15.4732 21.7627L14.6588 22.5758C13.9886 23.2498 13.0866 23.6428 12.1367 23.6747C11.1867 23.7066 10.2604 23.3749 9.5465 22.7473L9.36683 22.5782L8.5525 21.7638C8.32901 21.5418 8.03717 21.4016 7.72417 21.366L7.56667 21.3567H6.4C5.44658 21.3567 4.52927 20.992 3.83617 20.3373C3.14308 19.6826 2.72673 18.7875 2.6725 17.8357L2.66667 17.6233V16.4567C2.66656 16.1421 2.56053 15.8368 2.36567 15.5898L2.26067 15.4732L1.4475 14.6588C0.773495 13.9886 0.380493 13.0866 0.348625 12.1367C0.316758 11.1867 0.648424 10.2604 1.276 9.5465L1.44517 9.36683L2.2595 8.5525C2.48153 8.32901 2.62169 8.03717 2.65733 7.72417L2.66667 7.56667V6.4L2.6725 6.18767C2.72459 5.27235 3.11166 4.40821 3.75994 3.75994C4.40821 3.11166 5.27235 2.72459 6.18767 2.6725L6.4 2.66667H7.56667C7.88122 2.66656 8.18657 2.56053 8.4335 2.36567L8.55017 2.26067L9.3645 1.4475C9.71139 1.09854 10.1238 0.821589 10.5781 0.632583C11.0324 0.443576 11.5196 0.346238 12.0117 0.346167ZM16.3248 8.84183C16.106 8.62312 15.8094 8.50025 15.5 8.50025C15.1906 8.50025 14.8939 8.62312 14.6752 8.84183L10.8333 12.6825L9.32483 11.1752L9.21517 11.0783C8.98068 10.897 8.68596 10.8118 8.39089 10.8399C8.09581 10.868 7.82249 11.0073 7.62646 11.2297C7.43042 11.452 7.32635 11.7406 7.3354 12.0369C7.34445 12.3332 7.46593 12.6149 7.67517 12.8248L10.0085 15.1582L10.1182 15.255C10.3426 15.4291 10.6229 15.5154 10.9065 15.4975C11.19 15.4797 11.4573 15.359 11.6582 15.1582L16.3248 10.4915L16.4217 10.3818C16.5958 10.1574 16.682 9.87707 16.6642 9.59354C16.6464 9.31001 16.5257 9.04273 16.3248 8.84183Z" fill="#DC2F39"/>
</g>
<defs>
<clipPath id="clip0_1_2">
<rect width="24" height="24" fill="white"/>
</clipPath>
</defs>
</svg>
