<svg xmlns="http://www.w3.org/2000/svg" width="36" height="36" viewBox="0 0 36 36" fill="none">
    <path
        d="M28.8081 19.4582C28.4873 19.4582 28.1519 19.3561 27.8311 19.2832C27.1819 19.138 26.5435 18.948 25.9206 18.7144C25.2441 18.4683 24.5004 18.4811 23.8328 18.7503C23.1651 19.0195 22.6206 19.5262 22.304 20.1728L21.9831 20.8436C20.5668 20.0403 19.2584 19.0603 18.0894 17.9269C16.9561 16.7579 15.976 15.4495 15.1727 14.0332L15.8436 13.7269C16.4901 13.4103 16.9968 12.8658 17.266 12.1981C17.5352 11.5305 17.548 10.7868 17.3019 10.1103C17.0703 9.48176 16.8803 8.8387 16.7331 8.18525C16.6602 7.86442 16.6019 7.529 16.5581 7.20817C16.3811 6.18095 15.843 5.25071 15.0409 4.58498C14.2388 3.91924 13.2254 3.56177 12.1831 3.57692H7.79357C7.17705 3.57611 6.56733 3.70562 6.00436 3.95694C5.4414 4.20826 4.93791 4.57573 4.5269 5.03525C4.10737 5.50725 3.79498 6.06447 3.61122 6.66864C3.42745 7.27281 3.37665 7.9096 3.46232 8.53525C4.25505 14.605 7.02825 20.2437 11.3519 24.5769C15.6851 28.9006 21.3238 31.6738 27.3936 32.4665C27.5829 32.481 27.773 32.481 27.9623 32.4665C29.0377 32.4681 30.076 32.0735 30.879 31.3582C31.3385 30.9472 31.706 30.4437 31.9573 29.8807C32.2086 29.3177 32.3381 28.708 32.3373 28.0915V23.7165C32.3295 22.7088 31.974 21.7348 31.331 20.9589C30.688 20.1831 29.7968 19.653 28.8081 19.4582ZM29.5227 28.2082C29.5223 28.4117 29.4792 28.6128 29.3963 28.7987C29.3134 28.9845 29.1926 29.151 29.0415 29.2873C28.8816 29.433 28.6914 29.5412 28.4846 29.6043C28.2778 29.6673 28.0595 29.6836 27.8456 29.6519C22.4035 28.9412 17.346 26.4611 13.4519 22.5936C9.55446 18.6961 7.05278 13.621 6.33523 8.15609C6.30355 7.9422 6.31983 7.72394 6.38288 7.51712C6.44594 7.3103 6.5542 7.12009 6.69982 6.96025C6.8378 6.80735 7.00662 6.68541 7.19514 6.60246C7.38366 6.51951 7.58761 6.47744 7.79357 6.479H12.1686C12.5057 6.47076 12.8352 6.57961 13.1011 6.787C13.367 6.9944 13.5528 7.28753 13.6269 7.6165C13.6269 8.01025 13.7581 8.41859 13.8456 8.81234C14.0142 9.5763 14.2384 10.3269 14.5165 11.0582L12.4748 12.0207C12.1239 12.1818 11.8512 12.4755 11.7165 12.8373C11.5706 13.1924 11.5706 13.5906 11.7165 13.9457C13.8153 18.4414 17.4291 22.0552 21.9248 24.154C22.2799 24.2999 22.6781 24.2999 23.0331 24.154C23.395 24.0193 23.6887 23.7466 23.8498 23.3957L24.7686 21.354C25.5209 21.6283 26.2907 21.8525 27.0727 22.0248C27.4519 22.1123 27.8602 22.1853 28.254 22.2436C28.583 22.3177 28.8761 22.5035 29.0835 22.7694C29.2909 23.0353 29.3997 23.3648 29.3915 23.7019L29.5227 28.2082ZM20.9186 3.4165C20.5831 3.4165 20.2331 3.4165 19.8977 3.4165C19.511 3.44938 19.1531 3.63455 18.9028 3.93129C18.6526 4.22803 18.5305 4.61202 18.5634 4.9988C18.5962 5.38557 18.7814 5.74344 19.0781 5.99369C19.3749 6.24393 19.7589 6.36605 20.1456 6.33317H20.9186C23.2392 6.33317 25.4648 7.25504 27.1058 8.89599C28.7467 10.5369 29.6686 12.7625 29.6686 15.0832C29.6686 15.3457 29.6686 15.5936 29.6686 15.8561C29.6362 16.2408 29.7578 16.6227 30.0065 16.9179C30.2553 17.2131 30.611 17.3977 30.9956 17.4311H31.1123C31.4774 17.4326 31.8297 17.2971 32.0998 17.0514C32.3698 16.8056 32.5378 16.4676 32.5706 16.104C32.5706 15.7686 32.5706 15.4186 32.5706 15.0832C32.5707 11.9915 31.3435 9.02625 29.1587 6.83874C26.9739 4.65124 24.0102 3.42037 20.9186 3.4165ZM23.8352 15.0832C23.8352 15.4699 23.9889 15.8409 24.2624 16.1144C24.5359 16.3879 24.9068 16.5415 25.2936 16.5415C25.6803 16.5415 26.0513 16.3879 26.3248 16.1144C26.5983 15.8409 26.7519 15.4699 26.7519 15.0832C26.7519 13.5361 26.1373 12.0523 25.0434 10.9584C23.9494 9.86442 22.4657 9.24984 20.9186 9.24984C20.5318 9.24984 20.1609 9.40348 19.8874 9.67697C19.6139 9.95046 19.4602 10.3214 19.4602 10.7082C19.4602 11.0949 19.6139 11.4659 19.8874 11.7394C20.1609 12.0129 20.5318 12.1665 20.9186 12.1665C21.6921 12.1665 22.434 12.4738 22.981 13.0208C23.5279 13.5678 23.8352 14.3096 23.8352 15.0832Z"
        fill="#F0FDF4" />
</svg>